<svg width="48" height="48" viewBox="0 0 48 48" fill="none" xmlns="http://www.w3.org/2000/svg">
<g clip-path="url(#clip0_8_31)">
<path d="M23.5056 48C10.3425 48 6.79855 47.3206 3.73196 44.1895C0.650924 41.0363 0 37.44 0 24C0 10.56 0.66539 6.9637 3.73196 3.81046C6.79855 0.679385 10.3425 0 23.5056 0C36.6687 0 40.2126 0.679385 43.2792 3.81046C46.3603 6.9637 47.0112 10.56 47.0112 24C47.0112 37.44 46.3603 41.0363 43.2792 44.1895C40.2126 47.3206 36.6687 48 23.5056 48Z" fill="black"/>
<path d="M9.17747 26.125C9.42747 27.375 10.3025 28.0938 11.6462 28.0938C12.7712 28.0938 13.615 27.6875 14.2087 27.0312L15.74 28.5312C14.8025 29.5312 13.4275 30.1562 11.615 30.1562C8.36497 30.1562 6.70872 28.0938 6.70872 25.3125C6.70872 22.4375 8.58372 20.4688 11.4587 20.4688C14.3025 20.4688 16.115 22.375 16.115 25.3125C16.115 25.5 16.115 25.6875 16.0212 26.125H9.17747ZM11.4587 22.4688C10.3025 22.4688 9.48997 23.1562 9.20872 24.3125H13.615C13.365 23.125 12.615 22.4688 11.4587 22.4688ZM22.9275 18.125C26.7712 18.125 28.9275 20.4688 28.9275 24.0625C28.9275 27.5625 26.6775 30 22.9275 30H18.3025V18.125H22.9275ZM22.865 27.75C25.0212 27.75 26.1775 26.375 26.1775 24.0625C26.1775 21.75 25.0212 20.375 22.865 20.375H20.99V27.75H22.865ZM37.1462 20.625H39.6462V30H37.3962L37.3025 28.6875C36.5837 29.5938 35.4587 30.1562 34.1775 30.1562C32.1775 30.1562 30.8025 28.7188 30.8025 26.5625V20.625H33.3025V26C33.3025 27.3438 33.9275 28.0938 34.99 28.0938C36.1775 28.0938 37.1462 27.2188 37.1462 25.9688V20.625Z" fill="white"/>
</g>
<defs>
<clipPath id="clip0_8_31">
<rect width="47.0112" height="48" fill="white"/>
</clipPath>
</defs>
</svg>
